<?xml version="1.0" encoding="utf-8"?>
<!-- Generator: Adobe Illustrator 26.5.0, SVG Export Plug-In . SVG Version: 6.00 Build 0)  -->
<svg version="1.1" id="Layer_1" xmlns="http://www.w3.org/2000/svg" xmlns:xlink="http://www.w3.org/1999/xlink" x="0px" y="0px"
	 viewBox="0 0 750 167.83" style="enable-background:new 0 0 750 167.83;" xml:space="preserve">
<style type="text/css">
	.st0{fill:url(#SVGID_1_);}
	.st1{fill:#002654;}
</style>
<linearGradient id="SVGID_1_" gradientUnits="userSpaceOnUse" x1="71.3185" y1="161.4656" x2="71.3185" y2="6.367">
	<stop  offset="0" style="stop-color:#0279C2"/>
	<stop  offset="1" style="stop-color:#3BC5BD"/>
</linearGradient>
<path class="st0" d="M116.81,89.65c-2.39,6.56-6.85,15.2-12.01,24.2c-7.26-5.41-15-12-19.64-18.4h3.46c2.23,0,4.04-1.81,4.04-4.04
	V69.99l-6.08-7.04c1.1-5.89,8.47-18.27,15.47-28.39c11.32,8.05,18.65,20.92,18.65,35.43C120.7,76.61,118.95,83.76,116.81,89.65z
	 M19.85,110.23c0,0,1.09-9.94,27.11-26.36c3.34-2.11,6.51-3.71,9.42-4.94l0.06-8.94l16.21-19.54c0.81-0.97,2.29-0.99,3.12-0.03
	l5.74,6.65c1.23-3.97,3.27-8.72,6.63-13.85c14.25-21.72,27.42-25.65,27.42-25.65s-3.08,3.13-7.3,8.5c1.9,1.54,4.33,2.47,6.97,2.47
	c6.12,0,11.09-4.96,11.09-11.09c0-6.12-4.96-11.09-11.09-11.09c-6.12,0-11.09,4.96-11.09,11.09c0,1.17,0.18,2.3,0.52,3.36
	c-3.54,2.73-7.76,6.05-11.17,8.93c-5.8-2.5-12.23-3.9-19.01-3.9c-25.53,0-46.22,19.76-46.22,44.15c0,6.58,1.54,11.93,3.61,17.8
	c-3.02,4.27-6.3,9.22-8.6,12.74c-1.47-0.72-3.13-1.13-4.88-1.13c-6.12,0-11.09,4.96-11.09,11.09c0,6.12,4.96,11.09,11.09,11.09
	c6.12,0,11.09-4.96,11.09-11.09c0-2.3-0.7-4.43-1.9-6.2C22.89,107.73,19.85,110.23,19.85,110.23z M124.25,117.24
	c-3.49,0-6.6,1.62-8.63,4.14c4.31,2.81,7.24,4.52,7.24,4.52s-9.7,2.43-34.13-16.29c-6.62-5.07-10.91-10.22-13.56-14.17H60.34
	c-2.24,0-4.06-1.83-4.04-4.07l0.03-4.16c-6.65,2.68-13.78,6.87-19.96,10.94c12.04,24.6,38.12,63.3,38.12,63.3
	s12.93-18.6,24.81-38.26c4.74,1.55,10.04,3.13,13.9,4.25c-0.02,0.29-0.04,0.58-0.04,0.88c0,6.12,4.96,11.09,11.09,11.09
	s11.09-4.96,11.09-11.09C135.33,122.21,130.37,117.24,124.25,117.24z"/>
<g>
	<g>
		<path class="st1" d="M167.78,59.42l13.45,33.71l13.64-33.71h8.03l-21.83,52.3l-21.33-52.3H167.78z"/>
		<path class="st1" d="M234.95,96.25h-20.82l-5.42,11.81h-7.91l24.07-51.7l23.22,51.7h-8.03L234.95,96.25z M231.95,89.35
			l-7.21-16.54l-7.56,16.54H231.95z"/>
		<path class="st1" d="M255.65,108.06V59.42h10.21c4.89,0,8.76,0.48,11.59,1.45c3.04,0.94,5.81,2.55,8.29,4.82
			c5.02,4.58,7.53,10.6,7.53,18.05c0,7.48-2.61,13.53-7.84,18.15c-2.63,2.31-5.38,3.92-8.25,4.82c-2.69,0.9-6.5,1.35-11.44,1.35
			H255.65z M262.99,101.16h3.31c3.3,0,6.04-0.35,8.22-1.04c2.18-0.74,4.16-1.9,5.92-3.5c3.61-3.3,5.42-7.59,5.42-12.89
			c0-5.33-1.79-9.66-5.36-12.98c-3.21-2.96-7.95-4.44-14.21-4.44h-3.31V101.16z"/>
		<path class="st1" d="M301.55,83.52c0-6.85,2.51-12.73,7.53-17.64c5-4.91,11.01-7.37,18.02-7.37c6.93,0,12.87,2.48,17.83,7.43
			c4.98,4.96,7.47,10.91,7.47,17.86c0,6.99-2.5,12.93-7.5,17.8c-5.02,4.89-11.08,7.34-18.18,7.34c-6.28,0-11.92-2.17-16.92-6.52
			C304.3,97.62,301.55,91.31,301.55,83.52z M308.96,83.62c0,5.38,1.81,9.8,5.42,13.26c3.59,3.47,7.74,5.2,12.44,5.2
			c5.1,0,9.41-1.76,12.92-5.29c3.51-3.57,5.26-7.92,5.26-13.04c0-5.19-1.73-9.53-5.2-13.04c-3.44-3.53-7.71-5.29-12.79-5.29
			c-5.06,0-9.34,1.76-12.82,5.29C310.7,74.19,308.96,78.49,308.96,83.62z"/>
		<path class="st1" d="M413.08,96.25h-20.82l-5.42,11.81h-7.91L403,56.37l23.22,51.7h-8.03L413.08,96.25z M410.09,89.35l-7.21-16.54
			l-7.56,16.54H410.09z"/>
		<path class="st1" d="M433.78,108.06V56.11l35.47,37.11v-33.8h7.34v51.6l-35.47-37.02v34.05H433.78z"/>
		<path class="st1" d="M518.69,96.25h-20.82l-5.42,11.81h-7.91l24.07-51.7l23.22,51.7h-8.03L518.69,96.25z M515.69,89.35
			l-7.21-16.54l-7.56,16.54H515.69z"/>
		<path class="st1" d="M546.73,59.42v41.74h14.3v6.9h-21.64V59.42H546.73z"/>
		<path class="st1" d="M578.21,87.05l-15.88-27.63h8.44l11.12,19.44l11.15-19.44h8.44l-15.94,27.63v21.01h-7.34V87.05z"/>
		<path class="st1" d="M625.15,66.32v41.74h-7.34V66.32h-11.18v-6.9h29.68v6.9H625.15z"/>
		<path class="st1" d="M654.07,59.42v48.64h-7.34V59.42H654.07z"/>
		<path class="st1" d="M703.19,62.04v8.69c-4.24-3.55-8.63-5.32-13.17-5.32c-5,0-9.21,1.8-12.63,5.39
			c-3.44,3.57-5.17,7.94-5.17,13.11c0,5.1,1.72,9.41,5.17,12.92c3.44,3.51,7.67,5.26,12.66,5.26c2.58,0,4.78-0.42,6.58-1.26
			c1.01-0.42,2.05-0.99,3.13-1.7c1.08-0.71,2.22-1.57,3.42-2.58v8.85c-4.2,2.37-8.61,3.56-13.23,3.56c-6.95,0-12.89-2.43-17.8-7.28
			c-4.89-4.89-7.34-10.79-7.34-17.7c0-6.2,2.05-11.72,6.14-16.57c5.04-5.94,11.56-8.92,19.56-8.92
			C694.89,58.48,699.11,59.66,703.19,62.04z"/>
		<path class="st1" d="M741.44,66.67l-5.95,3.53c-1.11-1.93-2.17-3.19-3.18-3.78c-1.05-0.67-2.41-1.01-4.06-1.01
			c-2.04,0-3.73,0.58-5.07,1.73c-1.34,1.13-2.02,2.56-2.02,4.28c0,2.37,1.76,4.28,5.29,5.73l4.85,1.98c3.95,1.6,6.84,3.54,8.66,5.84
			c1.83,2.3,2.74,5.12,2.74,8.46c0,4.47-1.49,8.17-4.47,11.09c-3,2.94-6.73,4.41-11.18,4.41c-4.22,0-7.71-1.25-10.46-3.75
			c-2.71-2.5-4.4-6.02-5.07-10.55l7.43-1.64c0.34,2.86,0.92,4.83,1.76,5.92c1.51,2.1,3.72,3.15,6.62,3.15c2.29,0,4.19-0.77,5.7-2.3
			c1.51-1.53,2.27-3.48,2.27-5.83c0-0.94-0.13-1.81-0.39-2.6c-0.26-0.79-0.67-1.51-1.23-2.17c-0.56-0.66-1.28-1.28-2.16-1.86
			c-0.88-0.58-1.93-1.13-3.15-1.65l-4.69-1.95c-6.66-2.81-9.99-6.93-9.99-12.35c0-3.65,1.4-6.71,4.19-9.17
			c2.79-2.48,6.27-3.72,10.43-3.72C733.91,58.48,738.29,61.21,741.44,66.67z"/>
	</g>
</g>
</svg>
