<?xml version="1.0" encoding="utf-8"?>
<!-- Generator: Adobe Illustrator 26.5.0, SVG Export Plug-In . SVG Version: 6.00 Build 0)  -->
<svg version="1.1" id="Layer_1" xmlns="http://www.w3.org/2000/svg" xmlns:xlink="http://www.w3.org/1999/xlink" x="0px" y="0px"
	 viewBox="0 0 825 1000" style="enable-background:new 0 0 825 1000;" xml:space="preserve">
<style type="text/css">
	.st0{fill:url(#SVGID_1_);}
</style>
<g>
	<linearGradient id="SVGID_1_" gradientUnits="userSpaceOnUse" x1="-0.5106" y1="499.8511" x2="824.9593" y2="499.8511">
		<stop  offset="0" style="stop-color:#1279BF"/>
		<stop  offset="1" style="stop-color:#45C0BA"/>
	</linearGradient>
	<path class="st0" d="M705.5,536.8c-15.4,42.3-44.2,98-77.4,156.1c-46.8-34.9-96.7-77.4-126.6-118.6h22.3c14.4,0,26-11.7,26-26
		V410.1l-39.2-45.4c7.1-38,54.6-117.8,99.7-183c73,51.9,120.3,134.9,120.3,228.4C730.6,452.7,719.3,498.9,705.5,536.8z M80.4,669.5
		c0,0,7-64.1,174.8-170c21.5-13.6,42-24,60.7-31.9l0.4-57.6l104.5-126c5.2-6.3,14.8-6.4,20.1-0.2l37,42.9
		c7.9-25.6,21-56.2,42.8-89.3c91.9-140,176.8-165.4,176.8-165.4s-19.8,20.2-47,54.8c12.3,9.9,27.9,15.9,44.9,15.9
		c39.5,0,71.5-32,71.5-71.5s-32-71.5-71.5-71.5s-71.5,32-71.5,71.5c0,7.6,1.2,14.8,3.3,21.6c-22.8,17.6-50,39-72,57.6
		c-37.4-16.1-78.9-25.1-122.6-25.1c-164.6,0-298,127.4-298,284.6c0,42.5,9.9,76.9,23.3,114.8c-19.5,27.5-40.6,59.5-55.5,82.1
		c-9.5-4.7-20.2-7.3-31.5-7.3c-39.5,0-71.5,32-71.5,71.5s32,71.5,71.5,71.5s71.5-32,71.5-71.5c0-14.8-4.5-28.5-12.2-40
		C100,653.4,80.4,669.5,80.4,669.5z M753.5,714.7c-22.5,0-42.5,10.4-55.6,26.7c27.8,18.1,46.7,29.2,46.7,29.2s-62.5,15.7-220-105
		c-42.7-32.7-70.3-65.9-87.4-91.3h-95.6c-14.5,0-26.1-11.8-26-26.2l0.2-26.8c-42.9,17.3-88.9,44.3-128.7,70.5
		c77.7,158.6,245.8,408.1,245.8,408.1S516,879.9,592.6,753.2c30.5,10,64.7,20.2,89.6,27.4c-0.2,1.9-0.2,3.8-0.2,5.7
		c0,39.5,32,71.5,71.5,71.5s71.5-32,71.5-71.5C824.9,746.7,792.9,714.7,753.5,714.7z"/>
</g>
</svg>
