<?xml version="1.0" encoding="utf-8"?>
<!-- Generator: Adobe Illustrator 26.5.0, SVG Export Plug-In . SVG Version: 6.00 Build 0)  -->
<svg version="1.1" id="Layer_1" xmlns="http://www.w3.org/2000/svg" xmlns:xlink="http://www.w3.org/1999/xlink" x="0px" y="0px"
	 viewBox="0 0 750 906.03" style="enable-background:new 0 0 750 906.03;" xml:space="preserve">
<style type="text/css">
	.st0{fill:url(#SVGID_1_);}
</style>
<linearGradient id="SVGID_1_" gradientUnits="userSpaceOnUse" x1="375" y1="871.2572" x2="375" y2="34.7759">
	<stop  offset="0" style="stop-color:#0279C2"/>
	<stop  offset="1" style="stop-color:#3BC5BD"/>
</linearGradient>
<path class="st0" d="M620.32,483.92c-12.91,35.37-36.96,81.97-64.75,130.54c-39.17-29.18-80.88-64.74-105.91-99.24h18.67
	c12.04,0,21.79-9.76,21.79-21.79V377.91l-32.79-37.98c5.91-31.77,45.68-98.56,83.41-153.11c61.04,43.4,100.59,112.83,100.59,191.09
	C641.35,413.6,631.9,452.2,620.32,483.92z M97.43,594.95c0,0,5.86-53.62,146.23-142.17c18.01-11.36,35.12-20.03,50.79-26.66
	l0.32-48.21l87.44-105.39c4.35-5.24,12.36-5.32,16.8-0.16l30.98,35.89c6.62-21.43,17.61-47.01,35.77-74.69
	C542.63,116.42,613.65,95.2,613.65,95.2s-16.59,16.9-39.36,45.87c10.27,8.31,23.33,13.3,37.57,13.3c33.03,0,59.8-26.77,59.8-59.8
	c0-33.03-26.77-59.8-59.8-59.8c-33.03,0-59.8,26.77-59.8,59.8c0,6.31,0.98,12.39,2.8,18.1c-19.08,14.72-41.85,32.63-60.25,48.15
	c-31.27-13.5-65.98-21.01-102.53-21.01c-137.67,0-249.28,106.6-249.28,238.09c0,35.51,8.3,64.36,19.47,96.01
	c-16.29,23.04-34,49.74-46.39,68.7c-7.94-3.9-16.87-6.1-26.32-6.1c-33.03,0-59.8,26.77-59.8,59.8c0,33.03,26.77,59.8,59.8,59.8
	c33.03,0,59.8-26.77,59.8-59.8c0-12.39-3.79-23.88-10.24-33.42C113.8,581.47,97.43,594.95,97.43,594.95z M660.45,632.76
	c-18.82,0-35.58,8.71-46.54,22.3c23.25,15.18,39.06,24.39,39.06,24.39s-52.32,13.11-184.07-87.83
	c-35.72-27.37-58.81-55.13-73.11-76.41h-79.99c-12.09,0-21.87-9.84-21.79-21.94l0.15-22.42c-35.88,14.45-74.34,37.04-107.67,59.02
	c64.95,132.66,205.58,341.38,205.58,341.38s69.75-100.32,133.79-206.33c25.55,8.36,54.14,16.86,74.99,22.9
	c-0.12,1.56-0.2,3.14-0.2,4.74c0,33.03,26.77,59.8,59.8,59.8c33.03,0,59.8-26.77,59.8-59.8
	C720.24,659.54,693.47,632.76,660.45,632.76z"/>
</svg>
