<?xml version="1.0" encoding="utf-8"?>
<!-- Generator: Adobe Illustrator 26.5.0, SVG Export Plug-In . SVG Version: 6.00 Build 0)  -->
<svg version="1.1" id="Layer_1" xmlns="http://www.w3.org/2000/svg" xmlns:xlink="http://www.w3.org/1999/xlink" x="0px" y="0px"
	 viewBox="0 0 825.47 1000" style="enable-background:new 0 0 825.47 1000;" xml:space="preserve">
<style type="text/css">
	.st0{fill:#FFFFFF;}
</style>
<path class="st0" d="M705.76,536.8c-15.43,42.29-44.18,97.99-77.4,156.06c-46.83-34.88-96.69-77.39-126.61-118.64h22.32
	c14.39,0,26.05-11.66,26.05-26.05V410.06l-39.2-45.4c7.06-37.98,54.61-117.82,99.72-183.04C683.61,233.49,730.9,316.5,730.9,410.06
	C730.9,452.72,719.6,498.87,705.76,536.8z M80.65,669.53c0,0,7.01-64.1,174.81-169.96c21.53-13.58,41.99-23.95,60.72-31.88
	l0.38-57.63L421.1,284.07c5.2-6.26,14.77-6.35,20.09-0.2l37.04,42.9c7.92-25.61,21.05-56.2,42.77-89.29
	C612.87,97.45,697.78,72.09,697.78,72.09s-19.83,20.2-47.05,54.84c12.28,9.93,27.89,15.9,44.92,15.9
	c39.48,0,71.49-32.01,71.49-71.49c0-39.48-32.01-71.49-71.49-71.49c-39.48,0-71.49,32.01-71.49,71.49c0,7.55,1.18,14.81,3.34,21.64
	c-22.81,17.59-50.03,39.01-72.03,57.56c-37.39-16.13-78.88-25.12-122.57-25.12c-164.59,0-298.01,127.43-298.01,284.63
	c0,42.45,9.92,76.94,23.27,114.78c-19.48,27.55-40.65,59.46-55.46,82.13c-9.49-4.66-20.17-7.29-31.46-7.29
	c-39.48,0-71.49,32.01-71.49,71.49c0,39.48,32.01,71.49,71.49,71.49c39.48,0,71.49-32.01,71.49-71.49
	c0-14.81-4.53-28.55-12.24-39.96C100.22,653.42,80.65,669.53,80.65,669.53z M753.72,714.74c-22.5,0-42.53,10.42-55.63,26.66
	c27.79,18.14,46.7,29.16,46.7,29.16s-62.55,15.67-220.05-105c-42.7-32.72-70.31-65.91-87.4-91.35h-95.63
	c-14.46,0-26.15-11.77-26.05-26.22l0.18-26.8c-42.89,17.28-88.88,44.28-128.72,70.55c77.65,158.6,245.77,408.11,245.77,408.11
	s83.39-119.93,159.95-246.67c30.54,9.99,64.73,20.16,89.64,27.38c-0.15,1.87-0.24,3.76-0.24,5.66c0,39.48,32.01,71.49,71.49,71.49
	s71.49-32.01,71.49-71.49C825.21,746.74,793.21,714.74,753.72,714.74z"/>
</svg>
